<svg viewBox="0 0 120 120" fill="none" xmlns="http://www.w3.org/2000/svg">
  <path d="M60 16c-4 0-8 1.6-11 4.6L16 53.4a15.6 15.6 0 0 0 0 22l33 33a15.6 15.6 0 0 0 22 0l33-33a15.6 15.6 0 0 0 0-22L71 20.6A15.6 15.6 0 0 0 60 16zm0 8c2 0 4 .8 5.5 2.3L98 59a7.8 7.8 0 0 1 0 11l-33 33a7.8 7.8 0 0 1-11 0L21 70a7.8 7.8 0 0 1 0-11L54.5 26.3A7.8 7.8 0 0 1 60 24z" fill="#ffffff" fill-opacity="0.3"/>
  <path d="M48 40a2 2 0 0 0-2 2v36a2 2 0 0 0 2 2h5a2 2 0 0 0 2-2V42a2 2 0 0 0-2-2h-5zm9 8a2 2 0 0 0-2 2v28a2 2 0 0 0 2 2h5a2 2 0 0 0 2-2V50a2 2 0 0 0-2-2h-5zm9-8a2 2 0 0 0-2 2v36a2 2 0 0 0 2 2h5a2 2 0 0 0 2-2V42a2 2 0 0 0-2-2h-5z" fill="#ffffff"/>
</svg>
